<svg width="19" height="21" viewBox="0 0 19 21" fill="none" xmlns="http://www.w3.org/2000/svg">
<path d="M8.63636 0C8.15964 0 7.77273 0.392 7.77273 0.875V1.91748C3.35872 2.74435 0 6.66801 0 11.375C0 16.6804 4.26352 21 9.5 21C14.7365 21 19 16.6804 19 11.375C19 6.66801 15.6413 2.74435 11.2273 1.91748V0.875C11.2273 0.392 10.8404 0 10.3636 0H8.63636ZM16.4007 1.74146C16.2289 1.7415 16.061 1.79346 15.9185 1.89068C15.7759 1.98791 15.6653 2.12598 15.6006 2.28725C15.536 2.44853 15.5203 2.62567 15.5555 2.79604C15.5908 2.9664 15.6754 3.12225 15.7985 3.24365L16.6621 4.11865C16.7417 4.20263 16.837 4.26967 16.9425 4.31586C17.048 4.36205 17.1615 4.38645 17.2764 4.38763C17.3913 4.38882 17.5052 4.36676 17.6116 4.32276C17.718 4.27876 17.8146 4.21369 17.8959 4.13137C17.9771 4.04905 18.0414 3.95113 18.0848 3.84335C18.1282 3.73557 18.15 3.6201 18.1488 3.50369C18.1477 3.38728 18.1236 3.27227 18.078 3.16541C18.0324 3.05855 17.9662 2.96197 17.8833 2.88135L17.0197 2.00635C16.9392 1.92253 16.843 1.8559 16.7367 1.8104C16.6303 1.76491 16.5161 1.74146 16.4007 1.74146V1.74146ZM9.5 3.5C13.803 3.5 17.2727 7.01539 17.2727 11.375C17.2727 15.7346 13.803 19.25 9.5 19.25C5.19701 19.25 1.72727 15.7346 1.72727 11.375C1.72727 7.01539 5.19701 3.5 9.5 3.5ZM9.48651 5.23804C9.25775 5.24166 9.03976 5.33709 8.88037 5.50338C8.72099 5.66966 8.63323 5.89323 8.63636 6.125V9.86255C8.37423 10.0159 8.15647 10.2363 8.0049 10.5018C7.85333 10.7672 7.77326 11.0683 7.77273 11.375C7.77297 11.682 7.85289 11.9834 8.00448 12.2492C8.15607 12.515 8.37399 12.7357 8.63636 12.8892V14C8.63475 14.1159 8.65589 14.2311 8.69856 14.3387C8.74124 14.4463 8.8046 14.5442 8.88495 14.6268C8.96531 14.7093 9.06106 14.7749 9.16665 14.8197C9.27223 14.8644 9.38555 14.8875 9.5 14.8875C9.61445 14.8875 9.72777 14.8644 9.83335 14.8197C9.93894 14.7749 10.0347 14.7093 10.115 14.6268C10.1954 14.5442 10.2588 14.4463 10.3014 14.3387C10.3441 14.2311 10.3653 14.1159 10.3636 14V12.8875C10.6258 12.7341 10.8435 12.5137 10.9951 12.2482C11.1467 11.9828 11.2267 11.6817 11.2273 11.375C11.227 11.068 11.1471 10.7666 10.9955 10.5008C10.8439 10.235 10.626 10.0143 10.3636 9.86084V6.125C10.3652 6.00793 10.3436 5.89174 10.3001 5.78329C10.2565 5.67484 10.1919 5.57635 10.1102 5.49364C10.0284 5.41094 9.93102 5.3457 9.8239 5.30179C9.71678 5.25789 9.60205 5.23621 9.48651 5.23804V5.23804Z" fill="#83F6B1"/>
</svg>
